<svg width="745" height="205" viewBox="0 0 745 205" fill="none" xmlns="http://www.w3.org/2000/svg">
<path id="AAAA" d="M133.828 151.562H48.0469L28.7812 205H0.9375L79.125 0.25H102.75L181.078 205H153.375L133.828 151.562ZM56.2031 129.344H125.812L90.9375 33.5781L56.2031 129.344ZM321.703 151.562H235.922L216.656 205H188.812L267 0.25H290.625L368.953 205H341.25L321.703 151.562ZM244.078 129.344H313.688L278.812 33.5781L244.078 129.344ZM509.578 151.562H423.797L404.531 205H376.688L454.875 0.25H478.5L556.828 205H529.125L509.578 151.562ZM431.953 129.344H501.562L466.688 33.5781L431.953 129.344ZM697.453 151.562H611.672L592.406 205H564.562L642.75 0.25H666.375L744.703 205H717L697.453 151.562ZM619.828 129.344H689.438L654.562 33.5781L619.828 129.344Z" fill="black"/>
</svg>
