<svg width="288" height="297" viewBox="0 0 288 297" fill="none" xmlns="http://www.w3.org/2000/svg">
<path d="M55.728 71.384C55.728 83.48 54 99.608 33.12 111.848C35.568 113.432 39.312 116.744 40.896 119.048C63.504 105.368 65.808 86.216 65.808 71.528V70.664H85.68V102.2C85.68 103.784 85.248 104.216 83.376 104.36C81.504 104.36 75.312 104.36 68.112 104.216C69.408 106.952 70.704 110.84 71.136 113.576C80.64 113.576 87.264 113.576 91.152 112.136C95.184 110.408 96.048 107.672 96.048 102.344V70.664H134.928V60.872H77.328V46.616H66.528V60.872H9.648V70.664H55.728V71.384ZM103.536 82.472C112.752 91.112 123.696 103.064 128.448 110.984L137.376 105.368C132.192 97.448 121.104 85.784 111.744 77.576L103.536 82.472ZM31.248 78.152C26.784 87.224 16.992 97.448 7.056 103.352C9.216 104.936 12.528 107.816 14.4 109.688C24.912 102.92 35.28 91.832 41.328 81.032L31.248 78.152ZM50.976 130.856H98.208C91.872 138.92 83.088 145.544 72.864 151.016C63.36 145.688 55.728 139.208 50.112 131.72L50.976 130.856ZM107.136 121.496L105.12 121.928H60.48C63.216 119.048 65.664 116.168 67.968 113.144L56.448 111.128C48.384 122.36 32.832 134.888 10.8 143.384C12.96 145.112 16.128 148.568 17.568 151.16C27.072 147.128 35.28 142.376 42.624 137.336C47.952 144.392 54.576 150.584 62.208 155.912C46.08 162.536 26.928 166.568 7.2 169.016C9.216 171.032 11.664 175.784 12.384 178.376C33.696 175.352 54.576 170.312 72.432 161.96C88.704 170.456 108.72 175.784 131.76 178.232C132.912 175.352 135.648 170.744 137.952 168.44C117.216 166.712 98.784 162.536 83.52 156.2C96.336 148.568 106.992 138.776 114.192 126.248L107.136 121.496ZM165.096 115.16C165.096 115.952 164.952 118.616 164.736 122C160.992 122.576 156.744 123.08 154.368 123.224C152.64 123.296 151.272 123.368 149.688 123.296L150.264 129.272C154.8 128.624 161.064 127.76 164.376 127.328C164.16 129.632 164.016 132.008 163.872 134.312C160.272 140 151.992 151.232 147.96 156.272L151.56 161.24C155.016 156.344 159.768 149.504 163.296 144.176C163.296 145.328 163.224 146.336 163.224 147.056C163.08 154.904 163.08 158.576 163.008 165.488C163.008 166.64 162.936 168.728 162.792 169.736H169.056C168.912 168.44 168.768 166.64 168.696 165.344C168.336 158.936 168.408 154.544 168.408 147.992C168.408 145.4 168.48 142.52 168.624 139.496C175.176 133.376 182.808 129.2 191.16 129.2C200.664 129.2 205.056 136.472 205.056 142.016C205.128 154.4 194.184 160.088 182.016 161.816L184.68 167.216C200.376 164.192 210.96 156.632 210.888 142.16C210.816 131 201.96 123.944 192.024 123.944C185.184 123.944 176.976 126.464 169.056 133.016C169.128 131.432 169.272 129.848 169.416 128.336C170.496 126.536 171.72 124.592 172.656 123.296L170.496 120.776C170.352 120.848 170.28 120.848 170.136 120.92C170.64 115.88 171.216 111.848 171.576 110.048L164.808 109.832C165.096 111.632 165.096 113.576 165.096 115.16ZM242.352 159.44C242.352 156.92 244.872 154.832 248.112 154.832C253.584 154.832 257.184 158.936 257.76 164.624C255.96 164.912 254.016 165.056 251.928 165.056C246.312 165.056 242.352 162.896 242.352 159.44ZM233.136 113.936L233.352 119.912C234.864 119.696 236.52 119.552 238.104 119.48C241.92 119.264 256.32 118.616 260.136 118.472C256.464 121.712 247.464 129.272 243.432 132.584C239.256 136.112 230.04 143.816 224.064 148.712L228.168 152.96C237.312 143.672 243.72 138.56 255.744 138.56C265.104 138.56 271.872 143.888 271.872 150.944C271.872 156.848 268.632 161.024 262.872 163.256C262.008 156.416 257.184 150.512 248.184 150.512C241.488 150.512 237.096 154.904 237.096 159.872C237.096 165.848 243.072 170.096 252.864 170.096C268.128 170.096 277.632 162.608 277.632 151.016C277.632 141.296 269.064 134.096 257.112 134.096C253.872 134.096 250.416 134.456 247.104 135.608C252.72 130.928 262.512 122.576 266.112 119.84C267.408 118.76 268.848 117.824 270.144 116.888L266.832 112.712C266.112 112.928 265.104 113.144 262.944 113.288C259.128 113.648 241.992 114.224 238.248 114.224C236.808 114.224 234.792 114.152 233.136 113.936Z" fill="black"/>
<path d="M34.344 270.248C46.824 270.248 56.904 262.76 56.904 250.184C56.904 240.584 50.28 234.248 42.024 232.328V231.944C49.416 229.16 54.504 223.496 54.504 214.952C54.504 203.816 45.864 197.288 34.056 197.288C25.896 197.288 19.656 200.84 14.376 205.736L19.08 211.304C23.016 207.272 28.008 204.488 33.672 204.488C40.968 204.488 45.576 208.904 45.576 215.624C45.576 223.208 40.584 229.064 26.088 229.064V235.784C42.312 235.784 47.976 241.448 47.976 249.8C47.976 257.96 42.024 262.952 33.672 262.952C25.704 262.952 20.328 259.208 16.2 254.888L11.784 260.648C16.392 265.64 23.304 270.248 34.344 270.248ZM122.058 270.248C135.402 270.248 143.946 258.056 143.946 233.576C143.946 209.192 135.402 197.288 122.058 197.288C108.618 197.288 100.074 209.096 100.074 233.576C100.074 258.056 108.618 270.248 122.058 270.248ZM122.058 263.24C113.994 263.24 108.618 254.312 108.618 233.576C108.618 213.032 113.994 204.296 122.058 204.296C130.026 204.296 135.402 213.032 135.402 233.576C135.402 254.312 130.026 263.24 122.058 263.24ZM213.036 190.664C207.084 205.352 196.428 218.6 184.332 226.76C186.06 228.008 189.132 230.696 190.38 232.232C202.476 223.208 213.612 208.904 220.524 192.776L213.036 190.664ZM199.884 224.744V231.656H219.468C217.26 247.88 211.98 263.048 189.42 270.536C191.052 272.072 193.068 274.952 194.028 276.776C218.412 267.944 224.556 250.568 227.052 231.656H251.82C250.668 255.848 249.324 265.448 246.828 267.848C245.964 268.904 244.812 269.096 242.796 269.096C240.588 269.096 234.636 269 228.396 268.424C229.74 270.536 230.604 273.416 230.796 275.528C236.748 275.816 242.7 276.008 245.868 275.72C249.228 275.336 251.244 274.76 253.26 272.36C256.524 268.712 257.964 257.672 259.308 228.2C259.404 227.24 259.5 224.744 259.5 224.744H199.884ZM239.436 193.16C246.54 207.368 258.636 222.824 269.196 231.368C270.54 229.352 273.228 226.568 275.052 225.032C264.684 217.736 252.396 203.336 246.156 190.472L239.436 193.16Z" fill="white"/>
<path d="M42.024 232.328H41.024V233.122L41.7975 233.302L42.024 232.328ZM42.024 231.944L41.6715 231.008L41.024 231.252V231.944H42.024ZM14.376 205.736L13.6961 205.003L12.9959 205.652L13.6121 206.381L14.376 205.736ZM19.08 211.304L18.3161 211.949L19.0266 212.79L19.7956 212.003L19.08 211.304ZM26.088 229.064V228.064H25.088V229.064H26.088ZM26.088 235.784H25.088V236.784H26.088V235.784ZM16.2 254.888L16.923 254.197L16.1166 253.353L15.4064 254.28L16.2 254.888ZM11.784 260.648L10.9904 260.04L10.4782 260.708L11.0492 261.326L11.784 260.648ZM34.344 271.248C40.7769 271.248 46.6581 269.318 50.949 265.696C55.257 262.06 57.904 256.763 57.904 250.184H55.904C55.904 256.181 53.511 260.916 49.659 264.168C45.7899 267.434 40.3911 269.248 34.344 269.248V271.248ZM57.904 250.184C57.904 240.028 50.8643 233.357 42.2505 231.354L41.7975 233.302C49.6957 235.139 55.904 241.14 55.904 250.184H57.904ZM43.024 232.328V231.944H41.024V232.328H43.024ZM42.3765 232.88C50.0725 229.981 55.504 223.997 55.504 214.952H53.504C53.504 222.995 48.7595 228.339 41.6715 231.008L42.3765 232.88ZM55.504 214.952C55.504 209.102 53.2233 204.399 49.3474 201.175C45.4918 197.968 40.1356 196.288 34.056 196.288V198.288C39.7844 198.288 44.6522 199.872 48.0686 202.713C51.4647 205.537 53.504 209.666 53.504 214.952H55.504ZM34.056 196.288C25.5648 196.288 19.0935 199.998 13.6961 205.003L15.0559 206.469C20.2185 201.682 26.2272 198.288 34.056 198.288V196.288ZM13.6121 206.381L18.3161 211.949L19.8439 210.659L15.1399 205.091L13.6121 206.381ZM19.7956 212.003C23.6049 208.1 28.3543 205.488 33.672 205.488V203.488C27.6617 203.488 22.4271 206.444 18.3644 210.605L19.7956 212.003ZM33.672 205.488C37.1187 205.488 39.8315 206.528 41.6744 208.264C43.5114 209.994 44.576 212.501 44.576 215.624H46.576C46.576 212.027 45.3366 208.966 43.0456 206.808C40.7605 204.656 37.5213 203.488 33.672 203.488V205.488ZM44.576 215.624C44.576 219.18 43.4178 222.22 40.649 224.403C37.8381 226.618 33.226 228.064 26.088 228.064V230.064C33.446 230.064 38.5779 228.582 41.887 225.973C45.2382 223.332 46.576 219.652 46.576 215.624H44.576ZM25.088 229.064V235.784H27.088V229.064H25.088ZM26.088 236.784C34.1159 236.784 39.3393 238.191 42.5348 240.474C45.6644 242.709 46.976 245.878 46.976 249.8H48.976C48.976 245.37 47.4556 241.531 43.6972 238.846C40.0047 236.209 34.2841 234.784 26.088 234.784V236.784ZM46.976 249.8C46.976 253.621 45.5906 256.629 43.2888 258.691C40.9749 260.764 37.6527 261.952 33.672 261.952V263.952C38.0433 263.952 41.8731 262.644 44.6232 260.181C47.3854 257.707 48.976 254.139 48.976 249.8H46.976ZM33.672 261.952C26.0738 261.952 20.9416 258.403 16.923 254.197L15.477 255.579C19.7144 260.013 25.3342 263.952 33.672 263.952V261.952ZM15.4064 254.28L10.9904 260.04L12.5776 261.256L16.9936 255.496L15.4064 254.28ZM11.0492 261.326C15.8089 266.483 22.974 271.248 34.344 271.248V269.248C23.634 269.248 16.9751 264.797 12.5188 259.97L11.0492 261.326ZM122.058 271.248C129.092 271.248 134.877 268.007 138.855 261.621C142.798 255.289 144.946 245.908 144.946 233.576H142.946C142.946 245.724 140.822 254.679 137.157 260.563C133.527 266.393 128.368 269.248 122.058 269.248V271.248ZM144.946 233.576C144.946 221.292 142.798 212.004 138.852 205.754C134.869 199.448 129.082 196.288 122.058 196.288V198.288C128.378 198.288 133.535 201.08 137.16 206.822C140.822 212.62 142.946 221.476 142.946 233.576H144.946ZM122.058 196.288C114.991 196.288 109.179 199.419 105.182 205.716C101.222 211.955 99.074 221.245 99.074 233.576H101.074C101.074 221.427 103.198 212.573 106.87 206.788C110.505 201.061 115.685 198.288 122.058 198.288V196.288ZM99.074 233.576C99.074 245.908 101.222 255.29 105.178 261.622C109.169 268.01 114.979 271.248 122.058 271.248V269.248C115.697 269.248 110.515 266.39 106.874 260.562C103.198 254.678 101.074 245.724 101.074 233.576H99.074ZM122.058 262.24C118.495 262.24 115.439 260.312 113.213 255.746C110.959 251.123 109.618 243.886 109.618 233.576H107.618C107.618 244.002 108.965 251.597 111.415 256.622C113.893 261.704 117.557 264.24 122.058 264.24V262.24ZM109.618 233.576C109.618 223.363 110.959 216.224 113.21 211.676C115.432 207.188 118.485 205.296 122.058 205.296V203.296C117.567 203.296 113.9 205.772 111.418 210.788C108.965 215.744 107.618 223.245 107.618 233.576H109.618ZM122.058 205.296C125.578 205.296 128.609 207.182 130.821 211.674C133.061 216.223 134.402 223.363 134.402 233.576H136.402C136.402 223.245 135.055 215.745 132.615 210.79C130.147 205.778 126.506 203.296 122.058 203.296V205.296ZM134.402 233.576C134.402 243.885 133.061 251.124 130.818 255.748C128.602 260.317 125.568 262.24 122.058 262.24V264.24C126.516 264.24 130.154 261.699 132.618 256.62C135.055 251.596 136.402 244.003 136.402 233.576H134.402ZM213.036 190.664L213.307 189.702L212.446 189.458L212.109 190.288L213.036 190.664ZM184.332 226.76L183.773 225.931L182.585 226.732L183.746 227.571L184.332 226.76ZM190.38 232.232L189.604 232.863L190.209 233.607L190.978 233.034L190.38 232.232ZM220.524 192.776L221.443 193.17L221.892 192.123L220.795 191.814L220.524 192.776ZM199.884 224.744V223.744H198.884V224.744H199.884ZM199.884 231.656H198.884V232.656H199.884V231.656ZM219.468 231.656L220.459 231.791L220.613 230.656H219.468V231.656ZM189.42 270.536L189.105 269.587L187.514 270.115L188.735 271.264L189.42 270.536ZM194.028 276.776L193.143 277.242L193.549 278.013L194.369 277.716L194.028 276.776ZM227.052 231.656V230.656H226.175L226.061 231.525L227.052 231.656ZM251.82 231.656L252.819 231.704L252.869 230.656H251.82V231.656ZM246.828 267.848L246.135 267.127L246.092 267.169L246.054 267.215L246.828 267.848ZM228.396 268.424L228.488 267.428L226.458 267.241L227.552 268.961L228.396 268.424ZM230.796 275.528L229.8 275.619L229.879 276.485L230.748 276.527L230.796 275.528ZM245.868 275.72L245.959 276.716L245.97 276.715L245.982 276.714L245.868 275.72ZM253.26 272.36L252.515 271.693L252.504 271.705L252.494 271.717L253.26 272.36ZM259.308 228.2L258.313 228.1L258.31 228.127L258.309 228.154L259.308 228.2ZM259.5 224.744L260.499 224.782L260.539 223.744H259.5V224.744ZM239.436 193.16L239.065 192.232L238.056 192.635L238.542 193.607L239.436 193.16ZM269.196 231.368L268.567 232.145L269.42 232.835L270.028 231.923L269.196 231.368ZM275.052 225.032L275.696 225.797L276.689 224.961L275.627 224.214L275.052 225.032ZM246.156 190.472L247.056 190.036L246.649 189.198L245.785 189.544L246.156 190.472ZM212.109 190.288C206.228 204.802 195.695 217.888 183.773 225.931L184.891 227.589C197.161 219.312 207.94 205.902 213.963 191.04L212.109 190.288ZM183.746 227.571C185.436 228.791 188.432 231.42 189.604 232.863L191.156 231.601C189.832 229.972 186.684 227.225 184.917 225.949L183.746 227.571ZM190.978 233.034C203.229 223.894 214.469 209.443 221.443 193.17L219.605 192.382C212.755 208.365 201.723 222.522 189.782 231.43L190.978 233.034ZM220.795 191.814L213.307 189.702L212.765 191.626L220.253 193.738L220.795 191.814ZM198.884 224.744V231.656H200.884V224.744H198.884ZM199.884 232.656H219.468V230.656H199.884V232.656ZM218.477 231.521C217.38 239.583 215.533 247.255 211.239 253.825C206.962 260.368 200.2 265.904 189.105 269.587L189.735 271.485C201.2 267.68 208.358 261.888 212.913 254.919C217.451 247.977 219.348 239.953 220.459 231.791L218.477 231.521ZM188.735 271.264C190.266 272.705 192.22 275.488 193.143 277.242L194.913 276.31C193.916 274.416 191.838 271.439 190.105 269.808L188.735 271.264ZM194.369 277.716C206.75 273.232 214.57 266.546 219.595 258.527C224.604 250.535 226.788 241.296 228.043 231.787L226.061 231.525C224.82 240.928 222.684 249.833 217.901 257.465C213.134 265.07 205.69 271.488 193.687 275.836L194.369 277.716ZM227.052 232.656H251.82V230.656H227.052V232.656ZM250.821 231.608C250.245 243.702 249.623 252.111 248.837 257.787C248.445 260.626 248.015 262.747 247.543 264.29C247.063 265.856 246.572 266.707 246.135 267.127L247.521 268.569C248.332 267.789 248.945 266.54 249.455 264.875C249.973 263.187 250.419 260.946 250.819 258.061C251.617 252.289 252.243 243.802 252.819 231.704L250.821 231.608ZM246.054 267.215C245.511 267.879 244.81 268.096 242.796 268.096V270.096C244.814 270.096 246.417 269.929 247.602 268.481L246.054 267.215ZM242.796 268.096C240.607 268.096 234.687 268 228.488 267.428L228.304 269.42C234.585 270 240.569 270.096 242.796 270.096V268.096ZM227.552 268.961C228.802 270.924 229.621 273.647 229.8 275.619L231.792 275.437C231.587 273.185 230.678 270.148 229.24 267.887L227.552 268.961ZM230.748 276.527C236.678 276.814 242.707 277.012 245.959 276.716L245.777 274.724C242.693 275.004 236.818 274.818 230.844 274.529L230.748 276.527ZM245.982 276.714C247.68 276.519 249.141 276.268 250.454 275.719C251.794 275.158 252.928 274.31 254.026 273.003L252.494 271.717C251.576 272.81 250.694 273.45 249.682 273.873C248.643 274.308 247.416 274.537 245.754 274.726L245.982 276.714ZM254.005 273.027C254.958 271.962 255.714 270.433 256.349 268.358C256.987 266.276 257.524 263.573 257.995 260.098C258.938 253.149 259.635 242.981 260.307 228.246L258.309 228.154C257.637 242.891 256.942 252.979 256.013 259.83C255.548 263.255 255.029 265.838 254.437 267.773C253.842 269.715 253.194 270.934 252.515 271.693L254.005 273.027ZM260.303 228.3C260.354 227.79 260.403 226.899 260.439 226.16C260.457 225.786 260.472 225.442 260.483 225.191C260.488 225.066 260.492 224.964 260.495 224.893C260.496 224.858 260.497 224.83 260.498 224.811C260.498 224.802 260.499 224.795 260.499 224.79C260.499 224.788 260.499 224.786 260.499 224.784C260.499 224.784 260.499 224.783 260.499 224.783C260.499 224.783 260.499 224.783 260.499 224.783C260.499 224.783 260.499 224.783 260.499 224.782C260.499 224.782 260.499 224.782 259.5 224.744C258.501 224.706 258.501 224.706 258.501 224.706C258.501 224.706 258.501 224.706 258.501 224.706C258.501 224.706 258.501 224.706 258.501 224.706C258.501 224.706 258.501 224.707 258.501 224.707C258.501 224.708 258.501 224.71 258.5 224.712C258.5 224.717 258.5 224.724 258.5 224.733C258.499 224.751 258.498 224.778 258.496 224.813C258.494 224.883 258.49 224.983 258.484 225.107C258.474 225.354 258.459 225.694 258.441 226.064C258.405 226.813 258.358 227.65 258.313 228.1L260.303 228.3ZM259.5 223.744H199.884V225.744H259.5V223.744ZM238.542 193.607C245.7 207.924 257.881 223.499 268.567 232.145L269.825 230.591C259.391 222.149 247.38 206.812 240.33 192.713L238.542 193.607ZM270.028 231.923C271.304 230.009 273.918 227.294 275.696 225.797L274.408 224.267C272.538 225.842 269.776 228.695 268.364 230.813L270.028 231.923ZM275.627 224.214C265.404 217.02 253.225 202.754 247.056 190.036L245.256 190.908C251.567 203.918 263.964 218.452 274.477 225.85L275.627 224.214ZM245.785 189.544L239.065 192.232L239.807 194.088L246.527 191.4L245.785 189.544Z" fill="black"/>
<path d="M21.636 9.564C21.348 10.788 20.772 12.444 20.304 13.524L22.68 14.028H15.624L17.424 13.524C17.28 12.444 16.812 10.788 16.2 9.564H21.636ZM21.168 23.928H27.108V20.328H21.168V17.556H27.432V14.028H23.796C24.3 12.948 24.876 11.508 25.524 9.96L23.436 9.564H27.144V6.072H21.168V2.796H17.028V6.072H10.98V9.564H15.012L12.816 10.068C13.32 11.292 13.752 12.84 13.896 14.028H10.584V17.556H17.028V20.328H10.692V23.928H16.164C14.508 26.628 12.024 29.328 9.684 30.876C10.584 31.56 11.808 32.964 12.456 33.9C14.004 32.64 15.624 30.84 17.028 28.824V36.06H21.168V28.392C22.212 29.4 23.22 30.48 23.796 31.2L26.28 28.14C25.452 27.492 22.464 25.116 21.168 24.216V23.928ZM43.776 14.352H32.544V9.312C36.324 8.52 40.428 7.404 43.596 6L40.176 2.868C37.98 4.056 34.416 5.208 30.996 6.036L28.512 5.352V17.808C28.512 22.776 28.08 28.896 23.94 33.288C24.912 33.792 26.46 35.268 27 36.204C31.752 31.272 32.508 23.676 32.544 18.312H36.216V35.916H40.356V18.312H43.776V14.352ZM71.928 17.088V15.9H74.592C76.5 15.9 77.76 15.936 78.552 16.008V11.22C77.58 11.4 76.5 11.472 74.592 11.472H71.928V7.692C71.928 6.252 72.072 5.064 72.18 4.344H67.032C67.14 5.064 67.248 6.252 67.248 7.692V11.472H58.716V7.908C58.716 6.504 58.824 5.352 58.932 4.668H53.82C53.928 5.748 54.036 6.864 54.036 7.908V11.472H50.976C49.176 11.472 47.7 11.256 47.088 11.148V16.044C47.88 15.972 49.176 15.9 50.976 15.9H54.036V20.796C54.036 22.416 53.928 23.856 53.82 24.576H58.86C58.824 23.856 58.716 22.38 58.716 20.796V15.9H67.248V17.268C67.248 26.124 64.188 29.22 57.24 31.632L61.092 35.268C69.768 31.452 71.928 26.016 71.928 17.088ZM84.312 16.332V21.984C85.644 21.876 88.056 21.804 90.108 21.804H109.44C110.952 21.804 112.788 21.948 113.652 21.984V16.332C112.716 16.404 111.132 16.548 109.44 16.548H90.108C88.236 16.548 85.608 16.44 84.312 16.332ZM143.568 3.84L140.724 4.992C141.696 6.396 142.812 8.52 143.532 9.996L146.448 8.772C145.764 7.44 144.468 5.172 143.568 3.84ZM147.816 2.22L144.972 3.372C145.98 4.74 147.132 6.828 147.888 8.34L150.732 7.116C150.12 5.856 148.788 3.552 147.816 2.22ZM128.052 5.388H122.724C122.904 6.468 123.012 8.34 123.012 9.132V28.752C123.012 31.848 124.812 33.576 127.944 34.152C129.492 34.404 131.652 34.548 133.992 34.548C137.952 34.548 143.424 34.296 146.808 33.792V28.536C143.856 29.328 138.024 29.796 134.28 29.796C132.66 29.796 131.184 29.724 130.104 29.58C128.484 29.256 127.764 28.86 127.764 27.312V20.652C132.444 19.5 138.24 17.7 141.876 16.26C143.064 15.828 144.684 15.144 146.088 14.568L144.144 9.996C142.74 10.86 141.516 11.436 140.22 11.94C137.016 13.308 132.012 14.892 127.764 15.936V9.132C127.764 8.124 127.872 6.468 128.052 5.388ZM183.024 8.592L180.072 6.396C179.352 6.648 177.912 6.864 176.364 6.864H163.656C162.576 6.864 160.38 6.756 159.408 6.612V11.724C160.164 11.688 162.144 11.472 163.656 11.472H175.86C175.068 14.028 172.872 17.592 170.496 20.292C167.112 24.072 161.532 28.464 155.736 30.624L159.444 34.512C164.376 32.172 169.164 28.428 172.98 24.396C176.364 27.672 179.712 31.344 182.052 34.584L186.156 31.02C184.032 28.428 179.676 23.82 176.112 20.724C178.524 17.484 180.54 13.632 181.764 10.824C182.088 10.104 182.736 8.988 183.024 8.592Z" fill="red"/>
</svg>
