<svg width="288" height="297" viewBox="0 0 288 297" fill="none" xmlns="http://www.w3.org/2000/svg">
<path d="M55.728 71.384C55.728 83.48 54 99.608 33.12 111.848C35.568 113.432 39.312 116.744 40.896 119.048C63.504 105.368 65.808 86.216 65.808 71.528V70.664H85.68V102.2C85.68 103.784 85.248 104.216 83.376 104.36C81.504 104.36 75.312 104.36 68.112 104.216C69.408 106.952 70.704 110.84 71.136 113.576C80.64 113.576 87.264 113.576 91.152 112.136C95.184 110.408 96.048 107.672 96.048 102.344V70.664H134.928V60.872H77.328V46.616H66.528V60.872H9.648V70.664H55.728V71.384ZM103.536 82.472C112.752 91.112 123.696 103.064 128.448 110.984L137.376 105.368C132.192 97.448 121.104 85.784 111.744 77.576L103.536 82.472ZM31.248 78.152C26.784 87.224 16.992 97.448 7.056 103.352C9.216 104.936 12.528 107.816 14.4 109.688C24.912 102.92 35.28 91.832 41.328 81.032L31.248 78.152ZM50.976 130.856H98.208C91.872 138.92 83.088 145.544 72.864 151.016C63.36 145.688 55.728 139.208 50.112 131.72L50.976 130.856ZM107.136 121.496L105.12 121.928H60.48C63.216 119.048 65.664 116.168 67.968 113.144L56.448 111.128C48.384 122.36 32.832 134.888 10.8 143.384C12.96 145.112 16.128 148.568 17.568 151.16C27.072 147.128 35.28 142.376 42.624 137.336C47.952 144.392 54.576 150.584 62.208 155.912C46.08 162.536 26.928 166.568 7.2 169.016C9.216 171.032 11.664 175.784 12.384 178.376C33.696 175.352 54.576 170.312 72.432 161.96C88.704 170.456 108.72 175.784 131.76 178.232C132.912 175.352 135.648 170.744 137.952 168.44C117.216 166.712 98.784 162.536 83.52 156.2C96.336 148.568 106.992 138.776 114.192 126.248L107.136 121.496ZM165.096 115.16C165.096 115.952 164.952 118.616 164.736 122C160.992 122.576 156.744 123.08 154.368 123.224C152.64 123.296 151.272 123.368 149.688 123.296L150.264 129.272C154.8 128.624 161.064 127.76 164.376 127.328C164.16 129.632 164.016 132.008 163.872 134.312C160.272 140 151.992 151.232 147.96 156.272L151.56 161.24C155.016 156.344 159.768 149.504 163.296 144.176C163.296 145.328 163.224 146.336 163.224 147.056C163.08 154.904 163.08 158.576 163.008 165.488C163.008 166.64 162.936 168.728 162.792 169.736H169.056C168.912 168.44 168.768 166.64 168.696 165.344C168.336 158.936 168.408 154.544 168.408 147.992C168.408 145.4 168.48 142.52 168.624 139.496C175.176 133.376 182.808 129.2 191.16 129.2C200.664 129.2 205.056 136.472 205.056 142.016C205.128 154.4 194.184 160.088 182.016 161.816L184.68 167.216C200.376 164.192 210.96 156.632 210.888 142.16C210.816 131 201.96 123.944 192.024 123.944C185.184 123.944 176.976 126.464 169.056 133.016C169.128 131.432 169.272 129.848 169.416 128.336C170.496 126.536 171.72 124.592 172.656 123.296L170.496 120.776C170.352 120.848 170.28 120.848 170.136 120.92C170.64 115.88 171.216 111.848 171.576 110.048L164.808 109.832C165.096 111.632 165.096 113.576 165.096 115.16ZM242.352 159.44C242.352 156.92 244.872 154.832 248.112 154.832C253.584 154.832 257.184 158.936 257.76 164.624C255.96 164.912 254.016 165.056 251.928 165.056C246.312 165.056 242.352 162.896 242.352 159.44ZM233.136 113.936L233.352 119.912C234.864 119.696 236.52 119.552 238.104 119.48C241.92 119.264 256.32 118.616 260.136 118.472C256.464 121.712 247.464 129.272 243.432 132.584C239.256 136.112 230.04 143.816 224.064 148.712L228.168 152.96C237.312 143.672 243.72 138.56 255.744 138.56C265.104 138.56 271.872 143.888 271.872 150.944C271.872 156.848 268.632 161.024 262.872 163.256C262.008 156.416 257.184 150.512 248.184 150.512C241.488 150.512 237.096 154.904 237.096 159.872C237.096 165.848 243.072 170.096 252.864 170.096C268.128 170.096 277.632 162.608 277.632 151.016C277.632 141.296 269.064 134.096 257.112 134.096C253.872 134.096 250.416 134.456 247.104 135.608C252.72 130.928 262.512 122.576 266.112 119.84C267.408 118.76 268.848 117.824 270.144 116.888L266.832 112.712C266.112 112.928 265.104 113.144 262.944 113.288C259.128 113.648 241.992 114.224 238.248 114.224C236.808 114.224 234.792 114.152 233.136 113.936Z" fill="black"/>
<path d="M13.224 269H57.48V261.416H37.992C34.44 261.416 30.12 261.8 26.472 262.088C42.984 246.44 54.024 232.136 54.024 218.12C54.024 205.544 46.152 197.288 33.576 197.288C24.648 197.288 18.6 201.416 12.84 207.656L17.928 212.648C21.768 208.04 26.76 204.488 32.52 204.488C41.256 204.488 45.48 210.344 45.48 218.408C45.48 230.504 35.304 244.52 13.224 263.816V269ZM122.058 270.248C135.402 270.248 143.946 258.056 143.946 233.576C143.946 209.192 135.402 197.288 122.058 197.288C108.618 197.288 100.074 209.096 100.074 233.576C100.074 258.056 108.618 270.248 122.058 270.248ZM122.058 263.24C113.994 263.24 108.618 254.312 108.618 233.576C108.618 213.032 113.994 204.296 122.058 204.296C130.026 204.296 135.402 213.032 135.402 233.576C135.402 254.312 130.026 263.24 122.058 263.24ZM213.036 190.664C207.084 205.352 196.428 218.6 184.332 226.76C186.06 228.008 189.132 230.696 190.38 232.232C202.476 223.208 213.612 208.904 220.524 192.776L213.036 190.664ZM199.884 224.744V231.656H219.468C217.26 247.88 211.98 263.048 189.42 270.536C191.052 272.072 193.068 274.952 194.028 276.776C218.412 267.944 224.556 250.568 227.052 231.656H251.82C250.668 255.848 249.324 265.448 246.828 267.848C245.964 268.904 244.812 269.096 242.796 269.096C240.588 269.096 234.636 269 228.396 268.424C229.74 270.536 230.604 273.416 230.796 275.528C236.748 275.816 242.7 276.008 245.868 275.72C249.228 275.336 251.244 274.76 253.26 272.36C256.524 268.712 257.964 257.672 259.308 228.2C259.404 227.24 259.5 224.744 259.5 224.744H199.884ZM239.436 193.16C246.54 207.368 258.636 222.824 269.196 231.368C270.54 229.352 273.228 226.568 275.052 225.032C264.684 217.736 252.396 203.336 246.156 190.472L239.436 193.16Z" fill="white"/>
<path d="M13.224 269H10.224V272H13.224V269ZM57.48 269V272H60.48V269H57.48ZM57.48 261.416H60.48V258.416H57.48V261.416ZM26.472 262.088L24.4084 259.91L18.2502 265.746L26.7081 265.079L26.472 262.088ZM12.84 207.656L10.6356 205.621L8.6618 207.759L10.739 209.797L12.84 207.656ZM17.928 212.648L15.827 214.789L18.1496 217.068L20.2327 214.569L17.928 212.648ZM13.224 263.816L11.2499 261.557L10.224 262.454V263.816H13.224ZM13.224 272H57.48V266H13.224V272ZM60.48 269V261.416H54.48V269H60.48ZM57.48 258.416H37.992V264.416H57.48V258.416ZM37.992 258.416C34.2899 258.416 29.8166 258.815 26.2359 259.097L26.7081 265.079C30.4234 264.785 34.5901 264.416 37.992 264.416V258.416ZM28.5356 264.266C36.857 256.38 43.9334 248.71 48.9412 241.148C53.9488 233.587 57.024 225.93 57.024 218.12H51.024C51.024 224.326 48.5792 230.829 43.9388 237.836C39.2986 244.842 32.599 252.148 24.4084 259.91L28.5356 264.266ZM57.024 218.12C57.024 211.202 54.8484 205.192 50.6655 200.895C46.4732 196.589 40.5388 194.288 33.576 194.288V200.288C39.1892 200.288 43.4788 202.115 46.3665 205.081C49.2636 208.056 51.024 212.462 51.024 218.12H57.024ZM33.576 194.288C23.4817 194.288 16.6933 199.059 10.6356 205.621L15.0444 209.691C20.5067 203.773 25.8143 200.288 33.576 200.288V194.288ZM10.739 209.797L15.827 214.789L20.029 210.507L14.941 205.515L10.739 209.797ZM20.2327 214.569C23.8184 210.266 28.0475 207.488 32.52 207.488V201.488C25.4725 201.488 19.7176 205.814 15.6233 210.727L20.2327 214.569ZM32.52 207.488C36.1738 207.488 38.5274 208.684 40.0115 210.392C41.5515 212.164 42.48 214.865 42.48 218.408H48.48C48.48 213.887 47.2965 209.628 44.5405 206.456C41.7287 203.22 37.6022 201.488 32.52 201.488V207.488ZM42.48 218.408C42.48 223.592 40.3008 229.512 35.1905 236.669C30.083 243.821 22.2174 251.972 11.2499 261.557L15.1981 266.075C26.3106 256.364 34.573 247.859 40.0735 240.155C45.5712 232.456 48.48 225.32 48.48 218.408H42.48ZM10.224 263.816V269H16.224V263.816H10.224ZM122.058 273.248C129.816 273.248 136.228 269.622 140.553 262.678C144.774 255.9 146.946 246.092 146.946 233.576H140.946C140.946 245.54 138.846 254.068 135.459 259.506C132.176 264.778 127.644 267.248 122.058 267.248V273.248ZM146.946 233.576C146.946 221.108 144.774 211.387 140.543 204.686C136.204 197.815 129.787 194.288 122.058 194.288V200.288C127.673 200.288 132.2 202.713 135.469 207.89C138.846 213.237 140.946 221.66 140.946 233.576H146.946ZM122.058 194.288C114.298 194.288 107.852 197.777 103.493 204.644C99.2448 211.337 97.074 221.063 97.074 233.576H103.074C103.074 221.609 105.175 213.191 108.559 207.86C111.832 202.703 116.378 200.288 122.058 200.288V194.288ZM97.074 233.576C97.074 246.091 99.2457 255.901 103.482 262.682C107.823 269.63 114.26 273.248 122.058 273.248V267.248C116.416 267.248 111.861 264.77 108.57 259.502C105.174 254.067 103.074 245.541 103.074 233.576H97.074ZM122.058 260.24C119.434 260.24 116.985 258.919 115.011 254.869C112.953 250.649 111.618 243.769 111.618 233.576H105.618C105.618 244.119 106.971 252.071 109.617 257.499C112.347 263.097 116.618 266.24 122.058 266.24V260.24ZM111.618 233.576C111.618 223.48 112.953 216.704 115.003 212.563C116.963 208.603 119.403 207.296 122.058 207.296V201.296C116.649 201.296 112.369 204.357 109.625 209.901C106.971 215.263 105.618 223.128 105.618 233.576H111.618ZM122.058 207.296C124.65 207.296 127.071 208.587 129.027 212.557C131.068 216.702 132.402 223.481 132.402 233.576H138.402C138.402 223.127 137.048 215.266 134.409 209.907C131.685 204.373 127.434 201.296 122.058 201.296V207.296ZM132.402 233.576C132.402 243.768 131.068 250.651 129.019 254.875C127.049 258.936 124.619 260.24 122.058 260.24V266.24C127.465 266.24 131.707 263.08 134.417 257.493C137.048 252.069 138.402 244.12 138.402 233.576H132.402ZM213.036 190.664L213.85 187.777L211.265 187.047L210.256 189.537L213.036 190.664ZM184.332 226.76L182.654 224.273L179.092 226.676L182.576 229.192L184.332 226.76ZM190.38 232.232L188.052 234.124L189.867 236.358L192.174 234.637L190.38 232.232ZM220.524 192.776L223.281 193.958L224.628 190.816L221.338 189.889L220.524 192.776ZM199.884 224.744V221.744H196.884V224.744H199.884ZM199.884 231.656H196.884V234.656H199.884V231.656ZM219.468 231.656L222.441 232.061L222.904 228.656H219.468V231.656ZM189.42 270.536L188.475 267.689L183.701 269.273L187.364 272.721L189.42 270.536ZM194.028 276.776L191.373 278.173L192.591 280.487L195.05 279.597L194.028 276.776ZM227.052 231.656V228.656H224.422L224.078 231.263L227.052 231.656ZM251.82 231.656L254.817 231.799L254.966 228.656H251.82V231.656ZM246.828 267.848L244.749 265.685L244.62 265.81L244.506 265.948L246.828 267.848ZM228.396 268.424L228.672 265.437L222.581 264.875L225.865 270.035L228.396 268.424ZM230.796 275.528L227.808 275.8L228.045 278.398L230.651 278.524L230.796 275.528ZM245.868 275.72L246.14 278.708L246.174 278.705L246.209 278.701L245.868 275.72ZM253.26 272.36L251.024 270.36L250.993 270.395L250.963 270.43L253.26 272.36ZM259.308 228.2L256.323 227.901L256.315 227.982L256.311 228.063L259.308 228.2ZM259.5 224.744L262.498 224.859L262.618 221.744H259.5V224.744ZM239.436 193.16L238.322 190.375L235.295 191.585L236.753 194.502L239.436 193.16ZM269.196 231.368L267.309 233.7L269.867 235.77L271.692 233.032L269.196 231.368ZM275.052 225.032L276.984 227.327L279.962 224.819L276.778 222.579L275.052 225.032ZM246.156 190.472L248.855 189.163L247.636 186.649L245.042 187.687L246.156 190.472ZM210.256 189.537C204.515 203.703 194.229 216.465 182.654 224.273L186.01 229.247C198.627 220.735 209.653 207.001 215.816 191.791L210.256 189.537ZM182.576 229.192C184.188 230.356 187.032 232.868 188.052 234.124L192.708 230.34C191.232 228.524 187.932 225.66 186.088 224.328L182.576 229.192ZM192.174 234.637C204.734 225.267 216.182 210.522 223.281 193.958L217.767 191.594C211.042 207.286 200.218 221.149 188.586 229.827L192.174 234.637ZM221.338 189.889L213.85 187.777L212.222 193.551L219.71 195.663L221.338 189.889ZM196.884 224.744V231.656H202.884V224.744H196.884ZM199.884 234.656H219.468V228.656H199.884V234.656ZM216.495 231.251C215.412 239.213 213.616 246.533 209.565 252.731C205.567 258.847 199.199 264.129 188.475 267.689L190.365 273.383C202.201 269.455 209.753 263.409 214.587 256.013C219.368 248.699 221.316 240.323 222.441 232.061L216.495 231.251ZM187.364 272.721C188.694 273.972 190.524 276.559 191.373 278.173L196.683 275.379C195.612 273.345 193.41 270.172 191.476 268.351L187.364 272.721ZM195.05 279.597C207.811 274.975 216.006 268.021 221.29 259.589C226.524 251.238 228.757 241.663 230.026 232.049L224.078 231.263C222.851 240.561 220.764 249.13 216.206 256.403C211.698 263.595 204.629 269.745 193.006 273.955L195.05 279.597ZM227.052 234.656H251.82V228.656H227.052V234.656ZM248.823 231.513C248.248 243.602 247.628 251.933 246.856 257.513C246.47 260.306 246.058 262.308 245.631 263.704C245.181 265.172 244.813 265.624 244.749 265.685L248.907 270.011C250.091 268.872 250.827 267.224 251.367 265.461C251.93 263.626 252.394 261.266 252.8 258.335C253.612 252.467 254.24 243.902 254.817 231.799L248.823 231.513ZM244.506 265.948C244.475 265.987 244.475 265.977 244.504 265.959C244.529 265.943 244.523 265.955 244.441 265.977C244.214 266.04 243.774 266.096 242.796 266.096V272.096C244.819 272.096 247.324 271.979 249.15 269.748L244.506 265.948ZM242.796 266.096C240.644 266.096 234.79 266.001 228.672 265.437L228.12 271.411C234.482 271.999 240.532 272.096 242.796 272.096V266.096ZM225.865 270.035C226.925 271.7 227.655 274.11 227.808 275.8L233.784 275.256C233.553 272.722 232.555 269.372 230.927 266.813L225.865 270.035ZM230.651 278.524C236.539 278.809 242.72 279.019 246.14 278.708L245.596 272.732C242.68 272.997 236.957 272.823 230.941 272.532L230.651 278.524ZM246.209 278.701C247.944 278.502 249.64 278.227 251.226 277.564C252.894 276.866 254.279 275.811 255.557 274.29L250.963 270.43C250.225 271.309 249.594 271.742 248.91 272.028C248.144 272.349 247.152 272.554 245.527 272.739L246.209 278.701ZM255.496 274.36C256.722 272.99 257.586 271.151 258.262 268.944C258.944 266.714 259.499 263.891 259.977 260.367C260.933 253.32 261.633 243.071 262.305 228.337L256.311 228.063C255.639 242.801 254.947 252.808 254.031 259.561C253.573 262.937 253.072 265.4 252.524 267.187C251.97 268.997 251.43 269.906 251.024 270.36L255.496 274.36ZM262.293 228.499C262.35 227.929 262.401 226.986 262.436 226.257C262.455 225.877 262.47 225.529 262.481 225.275C262.486 225.149 262.49 225.045 262.493 224.973C262.495 224.937 262.496 224.909 262.497 224.89C262.497 224.88 262.497 224.873 262.497 224.868C262.498 224.865 262.498 224.863 262.498 224.862C262.498 224.861 262.498 224.86 262.498 224.86C262.498 224.86 262.498 224.86 262.498 224.86C262.498 224.859 262.498 224.859 262.498 224.859C262.498 224.859 262.498 224.859 259.5 224.744C256.502 224.629 256.502 224.629 256.502 224.629C256.502 224.629 256.502 224.629 256.502 224.629C256.502 224.629 256.502 224.629 256.502 224.629C256.502 224.629 256.502 224.629 256.502 224.63C256.502 224.631 256.502 224.633 256.502 224.635C256.502 224.639 256.502 224.646 256.501 224.655C256.501 224.672 256.499 224.699 256.498 224.733C256.495 224.801 256.491 224.9 256.486 225.023C256.476 225.267 256.461 225.603 256.444 225.967C256.407 226.726 256.362 227.511 256.323 227.901L262.293 228.499ZM259.5 221.744H199.884V227.744H259.5V221.744ZM236.753 194.502C244.021 209.037 256.371 224.85 267.309 233.7L271.083 229.036C260.901 220.798 249.059 205.699 242.119 191.818L236.753 194.502ZM271.692 233.032C272.831 231.324 275.299 228.746 276.984 227.327L273.12 222.737C271.157 224.39 268.249 227.38 266.7 229.704L271.692 233.032ZM276.778 222.579C266.844 215.588 254.883 201.589 248.855 189.163L243.457 191.781C249.909 205.083 262.524 219.884 273.326 227.485L276.778 222.579ZM245.042 187.687L238.322 190.375L240.55 195.945L247.27 193.257L245.042 187.687Z" fill="black"/>
<path d="M21.636 9.564C21.348 10.788 20.772 12.444 20.304 13.524L22.68 14.028H15.624L17.424 13.524C17.28 12.444 16.812 10.788 16.2 9.564H21.636ZM21.168 23.928H27.108V20.328H21.168V17.556H27.432V14.028H23.796C24.3 12.948 24.876 11.508 25.524 9.96L23.436 9.564H27.144V6.072H21.168V2.796H17.028V6.072H10.98V9.564H15.012L12.816 10.068C13.32 11.292 13.752 12.84 13.896 14.028H10.584V17.556H17.028V20.328H10.692V23.928H16.164C14.508 26.628 12.024 29.328 9.684 30.876C10.584 31.56 11.808 32.964 12.456 33.9C14.004 32.64 15.624 30.84 17.028 28.824V36.06H21.168V28.392C22.212 29.4 23.22 30.48 23.796 31.2L26.28 28.14C25.452 27.492 22.464 25.116 21.168 24.216V23.928ZM43.776 14.352H32.544V9.312C36.324 8.52 40.428 7.404 43.596 6L40.176 2.868C37.98 4.056 34.416 5.208 30.996 6.036L28.512 5.352V17.808C28.512 22.776 28.08 28.896 23.94 33.288C24.912 33.792 26.46 35.268 27 36.204C31.752 31.272 32.508 23.676 32.544 18.312H36.216V35.916H40.356V18.312H43.776V14.352ZM71.928 17.088V15.9H74.592C76.5 15.9 77.76 15.936 78.552 16.008V11.22C77.58 11.4 76.5 11.472 74.592 11.472H71.928V7.692C71.928 6.252 72.072 5.064 72.18 4.344H67.032C67.14 5.064 67.248 6.252 67.248 7.692V11.472H58.716V7.908C58.716 6.504 58.824 5.352 58.932 4.668H53.82C53.928 5.748 54.036 6.864 54.036 7.908V11.472H50.976C49.176 11.472 47.7 11.256 47.088 11.148V16.044C47.88 15.972 49.176 15.9 50.976 15.9H54.036V20.796C54.036 22.416 53.928 23.856 53.82 24.576H58.86C58.824 23.856 58.716 22.38 58.716 20.796V15.9H67.248V17.268C67.248 26.124 64.188 29.22 57.24 31.632L61.092 35.268C69.768 31.452 71.928 26.016 71.928 17.088ZM84.312 16.332V21.984C85.644 21.876 88.056 21.804 90.108 21.804H109.44C110.952 21.804 112.788 21.948 113.652 21.984V16.332C112.716 16.404 111.132 16.548 109.44 16.548H90.108C88.236 16.548 85.608 16.44 84.312 16.332ZM143.568 3.84L140.724 4.992C141.696 6.396 142.812 8.52 143.532 9.996L146.448 8.772C145.764 7.44 144.468 5.172 143.568 3.84ZM147.816 2.22L144.972 3.372C145.98 4.74 147.132 6.828 147.888 8.34L150.732 7.116C150.12 5.856 148.788 3.552 147.816 2.22ZM128.052 5.388H122.724C122.904 6.468 123.012 8.34 123.012 9.132V28.752C123.012 31.848 124.812 33.576 127.944 34.152C129.492 34.404 131.652 34.548 133.992 34.548C137.952 34.548 143.424 34.296 146.808 33.792V28.536C143.856 29.328 138.024 29.796 134.28 29.796C132.66 29.796 131.184 29.724 130.104 29.58C128.484 29.256 127.764 28.86 127.764 27.312V20.652C132.444 19.5 138.24 17.7 141.876 16.26C143.064 15.828 144.684 15.144 146.088 14.568L144.144 9.996C142.74 10.86 141.516 11.436 140.22 11.94C137.016 13.308 132.012 14.892 127.764 15.936V9.132C127.764 8.124 127.872 6.468 128.052 5.388ZM183.024 8.592L180.072 6.396C179.352 6.648 177.912 6.864 176.364 6.864H163.656C162.576 6.864 160.38 6.756 159.408 6.612V11.724C160.164 11.688 162.144 11.472 163.656 11.472H175.86C175.068 14.028 172.872 17.592 170.496 20.292C167.112 24.072 161.532 28.464 155.736 30.624L159.444 34.512C164.376 32.172 169.164 28.428 172.98 24.396C176.364 27.672 179.712 31.344 182.052 34.584L186.156 31.02C184.032 28.428 179.676 23.82 176.112 20.724C178.524 17.484 180.54 13.632 181.764 10.824C182.088 10.104 182.736 8.988 183.024 8.592Z" fill="#D46877"/>
</svg>
